<?xml version="1.0" encoding="utf-8"?>
<!-- Generator: Adobe Illustrator 20.1.0, SVG Export Plug-In . SVG Version: 6.00 Build 0)  -->
<svg version="1.1" xmlns="http://www.w3.org/2000/svg" xmlns:xlink="http://www.w3.org/1999/xlink" x="0px" y="0px"
	 viewBox="0 0 500 500" style="enable-background:new 0 0 500 500;" xml:space="preserve">
<style type="text/css">
	.st0{fill:#F61C0D;}
	.st1{clip-path:url(#SVGID_2_);fill:#EEEEEE;}
</style>
<g id="Layer_2">
	<rect x="-20.5" y="-18.9" class="st0" width="539" height="539"/>
</g>
<g id="Layer_1">
	<g>
		<g>
			<defs>
				<rect id="SVGID_1_" x="65.6" y="119.1" width="368.9" height="261.8"/>
			</defs>
			<clipPath id="SVGID_2_">
				<use xlink:href="#SVGID_1_"  style="overflow:visible;"/>
			</clipPath>
			<path class="st1" d="M357.8,119H142.2c-42.3,0-76.6,34.3-76.6,76.6v107.8c0,42.3,34.3,76.6,76.6,76.6h215.6
				c42.3,0,76.6-34.3,76.6-76.6V195.6C434.4,153.3,400.1,119,357.8,119L357.8,119z M306,254.8l-100.8,48.1c-2.7,1.3-5.8-0.7-5.8-3.7
				V200c0-3,3.2-5,5.9-3.6l100.8,51.1C309.1,249,309,253.3,306,254.8L306,254.8z M306,254.8"/>
		</g>
	</g>
</g>
</svg>
