<svg id="Layer_1" data-name="Layer 1" xmlns="http://www.w3.org/2000/svg" viewBox="0 0 300 300"><defs><style>.cls-1{fill:#e31837;}.cls-2{fill:#fff;}</style></defs><title>flame</title><rect class="cls-1" x="-10" y="-10" width="320" height="320"/><path class="cls-2" d="M271.22,243.25c-8.36-30-14.3-56.48-4.56-66,10.24-9.95-18,5.81-19.87,29.88-.2,2.56-.32,5.31-.41,8.18-.71,24.26,1.1,57.56-16.12,59-17.91,1.54-14-32,1.53-63.41,1.18-2.39,2.44-4.78,3.76-7.14,18.58-33.2,10-81.94,11.23-102.06,2.85-44.62,8.78-53.32,26.18-75.73,0,0-35.95,10-46.12,62.86-8.29,43-1.39,55.55-3.61,72.2-7.19,54.15-29.61,40.87-33,34.24s-2.47-24.7,10.05-40.46,10-34.87-11.6-47.31c0,0,13.32,16.59,5.68,33.2s-37.64,31.18-40.91,72c-3.9,48.81,11.38,78.18,12.55,81.13a47.73,47.73,0,0,0,3.18,5.8c8.68,13.7,24,22.62,42.37,22.62s35.65-8.92,47.37-22.62a61.93,61.93,0,0,0,14.79-33.37A52.63,52.63,0,0,0,271.22,243.25Z"/></svg>