<svg xmlns="http://www.w3.org/2000/svg" viewBox="0 0 500 500"><defs><style>.cls-1{fill:#eee;}</style></defs><title>icon-github</title><g id="Layer_2" data-name="Layer 2"><rect x="-19" y="-12" width="539" height="530"/></g><g id="Layer_1" data-name="Layer 1"><path class="cls-1" d="M311.9,274.63c6.78,0,12.36,3.51,17.41,10.24,4.8,6.58,7.32,14.89,7.32,24.73s-2.33,18-7.32,24.73-10.64,10-17.41,10c-7.12,0-13.3-3.26-18.35-10-4.85-6.73-7.32-15-7.32-24.73s2.47-18.15,7.32-24.73c5-6.73,11.23-10.24,18.35-10.24m87.35-90.41c19.09,20.68,28.79,45.6,28.79,75a192.17,192.17,0,0,1-6.58,51.59c-4.45,15-10,27.6-16.62,37.09A107.35,107.35,0,0,1,379.9,373a126.3,126.3,0,0,1-27.05,15.83,123.74,123.74,0,0,1-28.39,7.72,207.94,207.94,0,0,1-23.94,3.26c-5.24.2-11,.2-17.41.2-1.33,0-6.18.2-13.9.4-7.52.4-14.1.59-19.34.59-5,0-11.57-.2-19.29-.59-7.77-.2-12.36-.4-13.95-.4-6.18,0-12.17,0-17.36-.2a207.09,207.09,0,0,1-24-3.26,124.49,124.49,0,0,1-28.39-7.72c-8.11-3.31-17.16-8.51-27.05-15.83a110.3,110.3,0,0,1-24.73-25.13c-6.73-9.5-12.37-22.06-16.62-37.09C74.1,295.5,72,278.29,72,259.2c0-29.38,9.45-54.31,28.59-75-2.13-1.14-2.13-11.38-.4-31.11A184.46,184.46,0,0,1,112.92,99c23.74,2.52,53.12,16.07,88.09,40.21,12-3.12,28.19-4.65,48.87-4.65,21.66,0,37.89,1.53,48.91,4.65a320.14,320.14,0,0,1,45.75-26.26c14.89-6.78,25.52-10.64,32.3-11.62l10-2.32a187.66,187.66,0,0,1,12.76,54.11c1.93,19.73,1.73,30-.4,31.11M250.87,383c42.68,0,74.93-5,97-15.48,21.81-10.24,33-31.51,33-63.36,0-18.55-7-34.23-21.07-46.59a46.87,46.87,0,0,0-25.13-12.36c-9.45-1.53-24.14-1.53-43.67,0-19.69,1.58-33,2.32-40.16,2.32-9.84,0-20.48-.54-33.83-1.53-13.11-.94-23.54-1.53-30.91-1.93a101,101,0,0,0-24.33,2.72c-8.9,2.13-16,5.59-21.81,10.78-13.35,11.82-20.13,27.25-20.13,46.39,0,32,10.83,53.32,32.5,63.55C174,378,206.2,383,249.13,383M188.84,274.63c6.78,0,12.56,3.51,17.36,10.24s7.37,14.89,7.37,24.73-2.52,18-7.37,24.73-10.78,10-17.36,10c-7.17,0-13.35-3.26-18.35-10s-7.37-15-7.37-24.73,2.52-18.15,7.37-24.73,11.18-10.24,18.35-10.24"/></g></svg>