<svg xmlns="http://www.w3.org/2000/svg" xmlns:xlink="http://www.w3.org/1999/xlink" viewBox="0 0 500 500"><defs><style>.cls-1{fill:none;}.cls-2{fill:#f61c0d;}.cls-3{clip-path:url(#clip-path);}.cls-4{fill:#eee;}</style><clipPath id="clip-path"><rect class="cls-1" x="65.56" y="119.13" width="368.88" height="261.84"/></clipPath></defs><title>icon-youtube</title><g id="Layer_2" data-name="Layer 2"><rect class="cls-2" x="-20.46" y="-18.89" width="539.02" height="539.02"/></g><g id="Layer_1" data-name="Layer 1"><g class="cls-3"><path class="cls-4" d="M357.77,119H142.15a76.59,76.59,0,0,0-76.59,76.59V303.41A76.59,76.59,0,0,0,142.15,380H357.77a76.59,76.59,0,0,0,76.59-76.59V195.63A76.59,76.59,0,0,0,357.77,119ZM306,254.76l-100.85,48.1a4,4,0,0,1-5.79-3.65V200a4,4,0,0,1,5.88-3.61l100.85,51.1a4,4,0,0,1-.09,7.27Zm0,0"/></g></g></svg>