<svg xmlns="http://www.w3.org/2000/svg" viewBox="0 0 500 500"><defs><style>.cls-1{fill:#eee;}.cls-2{fill:#475993;}</style></defs><title>icon-facebook</title><g id="Layer_2" data-name="Layer 2"><rect class="cls-1" x="-36" y="-27" width="569" height="553"/></g><g id="Layer_1" data-name="Layer 1"><path class="cls-2" d="M434-4H65.06a68,68,0,0,0-68,68V433a68,68,0,0,0,68,68H247l.31-180.45H200.43a11.06,11.06,0,0,1-11.06-11l-.23-58.17a11.07,11.07,0,0,1,11.06-11.1H247V184.05c0-65.22,39.84-100.74,98-100.74h47.75a11.07,11.07,0,0,1,11.06,11.06v49a11.06,11.06,0,0,1-11.06,11.06l-29.3,0c-31.64,0-37.77,15-37.77,37.1v48.66h69.53a11.06,11.06,0,0,1,11,12.36l-6.89,58.17a11.06,11.06,0,0,1-11,9.76H326L325.71,501H434a68.05,68.05,0,0,0,68-68V64.06A68,68,0,0,0,434-4Zm0,0"/><rect class="cls-2" x="-23" y="-18" width="112" height="537"/><rect class="cls-2" x="446.01" y="-18" width="112" height="537"/></g></svg>